<svg height="511pt" viewBox="-34 1 511 511.99953" width="511pt" xmlns="http://www.w3.org/2000/svg"><path d="m.5 93.089844v-11.636719c0-44.984375 36.46875-81.453125 81.453125-81.453125 44.988281 0 81.457031 36.46875 81.457031 81.453125v58.183594h-116.363281c-25.707031 0-46.546875-20.839844-46.546875-46.546875zm0 0" fill="#007ca4"/><path d="m196.320312 455.8125 190.175782-190.171875c12.851562-12.855469 33.691406-12.855469 46.546875 0 12.851562 12.851563 12.851562 33.691406 0 46.542969l-190.175781 190.175781c-12.855469 12.851563-33.691407 12.851563-46.546876 0-12.851562-12.851563-12.851562-33.691406 0-46.546875zm0 0" fill="#1e2147"/><path d="m221.589844 279.273438c19.28125 0 34.910156 15.628906 34.910156 34.90625v162.910156c0 19.28125-15.628906 34.910156-34.910156 34.910156-19.277344 0-34.910156-15.628906-34.910156-34.910156v-162.910156c0-19.277344 15.632812-34.90625 34.910156-34.90625zm0 0" fill="#2c2f53"/><path d="m198.316406 349.089844c6.429688 0 11.636719 5.210937 11.636719 11.636718v93.089844c0 6.425782-5.207031 11.636719-11.636719 11.636719-6.425781 0-11.636718-5.210937-11.636718-11.636719v-93.089844c0-6.425781 5.210937-11.636718 11.636718-11.636718zm0 0" fill="#4c4f6e"/><path d="m256.5 209.453125h-69.816406l-46.546875 93.09375h162.90625zm0 0" fill="#2c2f53"/><path d="m209.953125 209.453125h-23.269531l-46.546875 93.09375h116.363281zm0 0" fill="#4c4f6e"/><path d="m163.410156 186.183594h116.363282c12.851562 0 23.273437 10.417968 23.273437 23.269531 0 12.855469-10.421875 23.273437-23.273437 23.273437h-116.363282c-12.855468 0-23.273437-10.417968-23.273437-23.273437 0-12.851563 10.417969-23.269531 23.273437-23.269531zm0 0" fill="#1e2147"/><path d="m163.410156 186.183594h46.542969c12.855469 0 23.273437 10.417968 23.273437 23.269531 0 12.855469-10.417968 23.273437-23.273437 23.273437h-46.542969c-12.855468 0-23.273437-10.417968-23.273437-23.273437 0-12.851563 10.417969-23.269531 23.273437-23.269531zm0 0" fill="#2c2f53"/><path d="m116.863281 162.910156h209.453125c12.855469 0 23.273438 10.417969 23.273438 23.273438 0 12.851562-10.417969 23.269531-23.273438 23.269531h-209.453125c-12.851562 0-23.273437-10.417969-23.273437-23.269531 0-12.855469 10.421875-23.273438 23.273437-23.273438zm0 0" fill="#1e2147"/><path d="m116.863281 162.910156h69.816407c12.855468 0 23.273437 10.417969 23.273437 23.273438 0 12.851562-10.417969 23.269531-23.273437 23.269531h-69.816407c-12.851562 0-23.273437-10.417969-23.273437-23.269531 0-12.855469 10.421875-23.273438 23.273437-23.273438zm0 0" fill="#2c2f53"/><path d="m105.226562 23.273438h232.726563c44.988281 0 81.457031 36.46875 81.457031 81.453124 0 44.988282-36.46875 81.457032-81.457031 81.457032h-232.726563c-44.984374 0-81.453124-36.46875-81.453124-81.457032 0-44.984374 36.46875-81.453124 81.453124-81.453124zm0 0" fill="#2c2f53"/><path d="m256.5 116.363281h116.363281c12.851563 0 23.273438 10.417969 23.273438 23.273438 0 12.851562-10.421875 23.273437-23.273438 23.273437h-116.363281c-12.851562 0-23.273438-10.421875-23.273438-23.273437 0-12.855469 10.417969-23.273438 23.273438-23.273438zm0 0" fill="#1e2147"/><path d="m163.410156 279.273438h116.363282c12.851562 0 23.273437 10.417968 23.273437 23.273437 0 12.851563-10.421875 23.269531-23.273437 23.269531h-116.363282c-12.855468 0-23.273437-10.417968-23.273437-23.269531 0-12.855469 10.417969-23.273437 23.273437-23.273437zm0 0" fill="#4c4f6e"/><path d="m163.410156 279.273438h69.816406c12.851563 0 23.273438 10.417968 23.273438 23.273437 0 12.851563-10.417969 23.269531-23.273438 23.269531h-69.816406c-12.855468 0-23.273437-10.417968-23.273437-23.269531 0-12.855469 10.417969-23.273437 23.273437-23.273437zm0 0" fill="#7c7f95"/><path d="m186.679688 104.726562c0 44.988282-36.464844 81.457032-81.453126 81.457032-44.984374 0-81.453124-36.46875-81.453124-81.457032 0-44.984374 36.46875-81.453124 81.453124-81.453124 44.988282 0 81.453126 36.46875 81.453126 81.453124zm0 0" fill="#4c4f6e"/><path d="m163.410156 104.726562c0 32.132813-26.050781 58.183594-58.183594 58.183594-32.132812 0-58.179687-26.050781-58.179687-58.183594 0-32.132812 26.046875-58.179687 58.179687-58.179687 32.132813 0 58.183594 26.046875 58.183594 58.179687zm0 0" fill="#2c2f53"/><path d="m140.136719 104.726562c0 19.28125-15.628907 34.910157-34.910157 34.910157-19.277343 0-34.910156-15.628907-34.910156-34.910157 0-19.277343 15.632813-34.910156 34.910156-34.910156 19.28125 0 34.910157 15.632813 34.910157 34.910156zm0 0" fill="#0ac"/><path d="m116.863281 93.089844c0 12.855468-10.417969 23.273437-23.273437 23.273437-12.851563 0-23.273438-10.417969-23.273438-23.273437 0-12.851563 10.421875-23.273438 23.273438-23.273438 12.855468 0 23.273437 10.421875 23.273437 23.273438zm0 0" fill="#bcf4f5"/><path d="m361.226562 0h-279.273437c44.988281 0 81.457031 36.46875 81.457031 81.453125v11.636719c0 25.707031 20.835938 46.546875 46.542969 46.546875h186.183594c25.707031 0 46.542969-20.839844 46.542969-46.546875v-11.636719c0-44.984375-36.464844-81.453125-81.453126-81.453125zm0 0" fill="#11cbe5"/><path d="m209.953125 93.089844h186.183594c12.851562 0 23.273437 10.421875 23.273437 23.273437 0 12.851563-10.421875 23.273438-23.273437 23.273438h-186.183594c-12.851563 0-23.273437-10.417969-23.273437-23.273438 0-12.851562 10.421874-23.273437 23.273437-23.273437zm0 0" fill="#0ac"/><path d="m186.679688 0h186.183593c12.851563 0 23.273438 10.417969 23.273438 23.273438 0 12.851562-10.421875 23.273437-23.273438 23.273437h-186.183593c-12.851563 0-23.269532-10.421875-23.269532-23.273437 0-12.855469 10.417969-23.273438 23.269532-23.273438zm0 0" fill="#91edf8"/></svg>