<svg height="512pt" viewBox="0 -6 512.00102 512" width="512pt" xmlns="http://www.w3.org/2000/svg"><path d="m500.496094 261.621094c-5.882813 133.0625-115.605469 239.136718-250.117188 239.136718-84.171875 0-158.636718-41.539062-204.027344-105.230468-8.257812-11.589844-12.609374-25.507813-12.609374-39.734375v-107.601563c0-11.078125-8.980469-20.0625-20.0625-20.0625-6.882813 0-12.167969-6.097656-11.210938-12.914062 17.042969-121.226563 120.875-214.59375 246.65625-215.21093775 130.730469-.64062525 238.949219 99.78515575 250.578125 227.55078175h-17.820313c-9.40625 0-17.03125 7.628906-17.03125 17.035156s7.625 17.03125 17.03125 17.03125zm0 0" fill="#0ab59e"/><path d="m145.226562 104.25-13.113281 7.171875c-.476562.261719-.871093.652344-1.132812 1.132813l-7.167969 13.109374c-1.082031 1.976563-3.917969 1.976563-4.996094 0l-7.171875-13.109374c-.261719-.480469-.652343-.871094-1.132812-1.132813l-13.109375-7.171875c-1.976563-1.078125-1.976563-3.914062 0-4.996094l13.109375-7.171875c.480469-.261719.871093-.652343 1.132812-1.128906l7.171875-13.113281c1.078125-1.972656 3.914063-1.972656 4.996094 0l7.167969 13.113281c.261719.476563.65625.867187 1.132812 1.128906l13.113281 7.171875c1.972657 1.082032 1.972657 3.917969 0 4.996094zm78.242188 339.203125-13.109375-7.167969c-.480469-.261718-.871094-.65625-1.132813-1.132812l-7.171874-13.113282c-1.078126-1.972656-3.914063-1.972656-4.996094 0l-7.171875 13.113282c-.257813.476562-.652344.871094-1.128907 1.132812l-13.113281 7.167969c-1.972656 1.082031-1.972656 3.917969 0 5l13.113281 7.167969c.476563.261718.871094.652344 1.128907 1.132812l7.171875 13.109375c1.082031 1.976563 3.917968 1.976563 4.996094 0l7.171874-13.109375c.261719-.480468.652344-.871094 1.132813-1.132812l13.109375-7.167969c1.976562-1.082031 1.976562-3.917969 0-5zm161.894531-306.492187c-.152343-.523438-.152343-1.078126 0-1.601563l4.203125-14.339844c.628906-2.160156-1.375-4.167969-3.535156-3.535156l-14.339844 4.199219c-.523437.15625-1.078125.15625-1.601562 0l-14.34375-4.199219c-2.160156-.632813-4.164063 1.375-3.53125 3.535156l4.199218 14.339844c.152344.523437.152344 1.078125 0 1.601563l-4.199218 14.339843c-.632813 2.160157 1.371094 4.167969 3.53125 3.535157l14.34375-4.199219c.523437-.15625 1.078125-.15625 1.601562 0l14.339844 4.199219c2.160156.632812 4.164062-1.375 3.535156-3.535157zm0 0" fill="#89e9d9"/><path d="m2.613281 214.191406h167.738281v183.226563h-122.628906c-30.007812-41.289063-47.722656-92.089844-47.722656-147.039063 0-12.289062.902344-24.371094 2.613281-36.1875zm0 0" fill="#a44f3e"/><path d="m2.613281 214.191406h167.738281v146.582032h-144.746093c-16.386719-33.304688-25.605469-70.769532-25.605469-110.394532 0-12.289062.902344-24.371094 2.613281-36.1875zm0 0" fill="#bb5d4c"/><path d="m482.597656 363.832031c16.480469 0 29.785156 13.585938 29.332032 30.167969-.441407 15.980469-13.953126 28.515625-29.941407 28.515625h-123.402343c-31.738282 0-47.847657-3.191406-62.882813-9.398437-15.125-6.242188-31.410156-9.183594-47.777344-9.183594h-52.980469c-1.316406 8.121094-8.34375 14.328125-16.835937 14.328125-9.433594 0-17.078125-7.644531-17.078125-17.078125v-204.882813c0-9.433593 7.644531-17.078125 17.078125-17.078125.308594 0 .609375.027344.914063.046875.011718-.015625.023437-.035156.035156-.046875 8.988281.492188 16.128906 7.917969 16.128906 17.027344v12.074219h42.960938c17.707031 0 33.207031-11.894531 37.789062-28.996094l33.867188-126.394531c2.097656-7.824219 10.140624-12.472656 17.96875-10.375 23.476562 6.292968 37.410156 30.425781 31.121093 53.90625l-21.171875 79.007812c-1.664062 6.210938 3.015625 12.3125 9.445313 12.3125h134.820312c15.988281 0 29.503907 12.535156 29.941407 28.515625.453124 16.582031-12.851563 30.164063-29.332032 30.164063 16.207032 0 29.34375 13.136718 29.34375 29.34375 0 16.203125-13.136718 29.339844-29.34375 29.339844 16.207032 0 29.34375 13.136718 29.34375 29.34375 0 16.203124-13.136718 29.339843-29.34375 29.339843zm0 0" fill="#fde803"/><path d="m266.625 208.324219h-28.476562c17.707031 0 33.203124-11.894531 37.789062-28.996094l33.867188-126.394531c2.097656-7.824219 10.140624-12.46875 17.96875-10.371094 4.640624 1.242188 8.90625 3.195312 12.722656 5.691406-.980469 1.382813-1.75 2.949219-2.214844 4.679688l-33.867188 126.394531c-4.585937 17.101563-20.082031 28.996094-37.789062 28.996094zm232.601562 125.511719h-97.152343c-8.550781 0-15.488281 6.933593-15.488281 15.488281 0 8.550781 6.9375 15.484375 15.488281 15.484375h80.074219c16.488281 0 29.851562-13.363282 29.851562-29.851563 0-1.3125-.09375-2.601562-.257812-3.871093-3.808594 1.761718-8.046876 2.75-12.515626 2.75zm0-58.683594h-97.152343c-8.550781 0-15.488281 6.9375-15.488281 15.488281 0 8.554687 6.9375 15.488281 15.488281 15.488281h80.074219c16.488281 0 29.851562-13.367187 29.851562-29.855468 0-1.3125-.09375-2.601563-.257812-3.871094-3.808594 1.761718-8.046876 2.75-12.515626 2.75zm12.515626-60.960938c-3.808594 1.761719-8.046876 2.753906-12.515626 2.753906h-97.152343c-8.550781 0-15.488281 6.933594-15.488281 15.484376 0 8.554687 6.9375 15.488281 15.488281 15.488281h80.074219c16.488281 0 29.851562-13.367188 29.851562-29.851563 0-1.316406-.09375-2.605468-.257812-3.875zm-29.144532 179.960938h-124.011718c-31.6875 0-47.703126-3.164063-62.679688-9.316406-14.941406-6.132813-30.941406-9.265626-47.089844-9.265626-19.5 0-35.308594-15.808593-35.308594-35.308593v-74.367188c0-5.0625-4.101562-9.164062-9.160156-9.164062s-9.164062 4.101562-9.164062 9.164062v109.675781c0 9.429688-7.644532 17.074219-17.074219 17.074219-9.433594 0-17.078125-7.644531-17.078125-17.078125v25.171875c0 9.570313 7.832031 17.699219 17.402344 17.519531 9.28125-.171874 16.75-7.75 16.75-17.070312v2.746094h53.628906c16.148438 0 32.152344 3.132812 47.089844 9.265625 14.976562 6.152343 30.992187 9.316406 62.683594 9.316406h123.398437c15.9375 0 29.425781-12.453125 29.9375-28.378906.175781-5.503907-1.167969-10.679688-3.640625-15.144531-4.996094 9.039062-14.625 15.160156-25.683594 15.160156zm0 0" fill="#e8ce00"/><path d="m271.960938 48.871094c-.152344.519531-.152344 1.078125 0 1.601562l4.203124 14.339844c.628907 2.160156-1.375 4.164062-3.535156 3.535156l-14.339844-4.203125c-.523437-.152343-1.082031-.152343-1.601562 0l-14.34375 4.203125c-2.160156.628906-4.164062-1.375-3.53125-3.535156l4.199219-14.339844c.152343-.523437.152343-1.078125 0-1.601562l-4.199219-14.34375c-.632812-2.160156 1.371094-4.164063 3.53125-3.53125l14.34375 4.199218c.519531.152344 1.078125.152344 1.601562 0l14.339844-4.199218c2.160156-.632813 4.164063 1.371094 3.535156 3.53125zm238.558593 257.65625-13.113281-7.167969c-.476562-.261719-.871094-.65625-1.132812-1.132813l-7.167969-13.113281c-1.082031-1.972656-3.917969-1.972656-4.996094 0l-7.171875 13.113281c-.261719.476563-.652344.871094-1.132812 1.132813l-13.109376 7.167969c-1.976562 1.082031-1.976562 3.917968 0 5l13.109376 7.167968c.480468.261719.871093.65625 1.132812 1.132813l7.171875 13.113281c1.078125 1.972656 3.914063 1.972656 4.996094 0l7.167969-13.113281c.261718-.476563.65625-.871094 1.132812-1.132813l13.113281-7.167968c1.972657-1.082032 1.972657-3.917969 0-5zm0 0" fill="#fff5f5"/></svg>