<svg id="Capa_1" enable-background="new 0 0 512.002 512.002" height="512" viewBox="0 0 512.002 512.002" width="512" xmlns="http://www.w3.org/2000/svg"><path d="m299.839 42.701h-42.036v-27.435h42.036c2.995 0 5.423 2.428 5.423 5.423v16.589c0 2.995-2.428 5.423-5.423 5.423z" fill="#f1d333"/><path d="m257.803 96.758c-4.143 0-7.5-3.358-7.5-7.5v-81.758c0-4.142 3.357-7.5 7.5-7.5s7.5 3.358 7.5 7.5v81.758c0 4.142-3.357 7.5-7.5 7.5z" fill="#5e6b75"/><path d="m205.709 198.324c-4.143 0-7.5-4.566-7.5-10.197v-42.421c0-5.632 3.357-10.197 7.5-10.197s7.5 4.566 7.5 10.197v42.421c0 5.631-3.357 10.197-7.5 10.197z" fill="#5e6b75"/><path d="m309.892 198.324c-4.143 0-7.5-4.566-7.5-10.197v-42.421c0-5.632 3.357-10.197 7.5-10.197s7.5 4.566 7.5 10.197v42.421c0 5.631-3.358 10.197-7.5 10.197z" fill="#5e6b75"/><path d="m378.461 322.082h-16.175c-4.143 0-7.5-3.357-7.5-7.5s3.357-7.5 7.5-7.5h16.175c4.143 0 7.5 3.357 7.5 7.5s-3.357 7.5-7.5 7.5z" fill="#4d5961"/><path d="m396.732 368.298h-16.739c-4.143 0-7.5-3.357-7.5-7.5s3.357-7.5 7.5-7.5h16.739c4.143 0 7.5 3.357 7.5 7.5s-3.358 7.5-7.5 7.5z" fill="#4d5961"/><path d="m414.012 414.514h-16.313c-4.143 0-7.5-3.357-7.5-7.5s3.357-7.5 7.5-7.5h16.313c4.143 0 7.5 3.357 7.5 7.5s-3.357 7.5-7.5 7.5z" fill="#4d5961"/><path d="m430.302 460.731h-14.896c-4.143 0-7.5-3.357-7.5-7.5s3.357-7.5 7.5-7.5h14.896c4.143 0 7.5 3.357 7.5 7.5s-3.357 7.5-7.5 7.5z" fill="#4d5961"/><path d="m433.496 512.002c-3.034 0-5.89-1.854-7.021-4.862l-81.432-216.521-33.647-3.867c-4.115-.474-7.067-4.192-6.595-8.308.473-4.114 4.18-7.072 8.308-6.595l38.198 4.391c2.794.321 5.174 2.179 6.163 4.812l83.044 220.81c1.459 3.877-.502 8.201-4.38 9.659-.868.326-1.761.481-2.638.481z" fill="#5e6b75"/><path d="m334.328 511.936c-3.771 0-7.02-2.837-7.445-6.673l-25.79-232.198c-.457-4.117 2.51-7.825 6.626-8.282 4.118-.454 7.825 2.51 8.282 6.626l25.79 232.198c.457 4.117-2.51 7.825-6.626 8.282-.281.031-.56.047-.837.047z" fill="#5e6b75"/><path d="m181.281 511.936c-.276 0-.556-.016-.837-.047-4.116-.457-7.083-4.165-6.626-8.282l25.79-232.198c.457-4.116 4.159-7.082 8.282-6.626 4.116.457 7.083 4.165 6.626 8.282l-25.79 232.198c-.425 3.835-3.673 6.673-7.445 6.673z" fill="#5e6b75"/><path d="m198.209 178.375h119.186v105.318h-119.186z" fill="#d82e3d"/><path d="m299.046 178.375h18.349v105.318h-18.349z" fill="#c32430"/><path d="m255.32 63.048-72.924 78.425c-2.016 2.168-.479 5.698 2.482 5.698h145.847c2.961 0 4.499-3.53 2.482-5.698l-72.924-78.425c-1.339-1.442-3.622-1.442-4.963 0z" fill="#f1d333"/><path d="m255.32 63.048-9.128 9.817 69.094 74.306h15.44c2.961 0 4.499-3.53 2.482-5.698l-72.924-78.425c-1.34-1.442-3.623-1.442-4.964 0z" fill="#e7a52e"/><path d="m345.668 386.961c0 27.559-14.839 53.218-38.706 66.978l-79.055 45.546v-66.315l50.357-29.024c6.128-3.524 9.939-10.117 9.939-17.185 0-10.939-8.899-19.838-19.838-19.838h-103.783c-44.734 0-81.124-36.389-81.124-81.114 0-44.734 36.389-81.124 81.124-81.124h33.628v57.465h-33.628c-13.047 0-23.659 10.612-23.659 23.659 0 13.037 10.612 23.649 23.659 23.649h103.783c42.626 0 77.303 34.677 77.303 77.303z" fill="#9bd069"/><path d="m268.365 309.658h-18.349c42.626 0 77.303 34.677 77.303 77.303 0 27.559-14.839 53.218-38.706 66.978l-60.706 34.975v10.572l79.055-45.546c23.867-13.76 38.706-39.419 38.706-66.978 0-42.627-34.677-77.304-77.303-77.304z" fill="#7dbe3b"/><path d="m179.86 204.885h18.349v57.465h-18.349z" fill="#7dbe3b"/><path d="m140.923 286.009c0-13.047 10.612-23.659 23.659-23.659h-18.349c-13.047 0-23.659 10.612-23.659 23.659 0 13.037 10.612 23.649 23.659 23.649h18.349c-13.047 0-23.659-10.612-23.659-23.649z" fill="#7dbe3b"/><g fill="#f1d333"><path d="m147.866 293.509h-69.358c-4.143 0-7.5-3.357-7.5-7.5s3.357-7.5 7.5-7.5h69.358c4.143 0 7.5 3.357 7.5 7.5s-3.357 7.5-7.5 7.5z"/><path d="m222.918 377.581c-4.143 0-7.5-3.357-7.5-7.5v-67.677c0-4.143 3.357-7.5 7.5-7.5s7.5 3.357 7.5 7.5v67.677c0 4.142-3.357 7.5-7.5 7.5z"/><path d="m227.906 511.935c-4.143 0-7.5-3.357-7.5-7.5v-78.193c0-4.143 3.357-7.5 7.5-7.5s7.5 3.357 7.5 7.5v78.193c0 4.143-3.357 7.5-7.5 7.5z"/><path d="m352.597 394.461h-71.323c-4.143 0-7.5-3.357-7.5-7.5s3.357-7.5 7.5-7.5h71.323c4.143 0 7.5 3.357 7.5 7.5s-3.357 7.5-7.5 7.5z"/><path d="m281.024 222.245h-46.442c-4.143 0-7.5-3.358-7.5-7.5s3.357-7.5 7.5-7.5h46.442c4.143 0 7.5 3.358 7.5 7.5s-3.358 7.5-7.5 7.5z"/><path d="m281.024 254.354h-46.442c-4.143 0-7.5-3.358-7.5-7.5s3.357-7.5 7.5-7.5h46.442c4.143 0 7.5 3.358 7.5 7.5s-3.358 7.5-7.5 7.5z"/></g><path d="m137.257 89.046c.965-3.962 1.334-8.157.997-12.489-1.531-19.638-17.647-35.342-37.318-36.371-15.204-.795-28.65 7-35.932 18.963-2.379 3.909-7.788 4.58-11.018 1.338-5.518-5.538-13.407-8.713-22.017-7.87-13.238 1.297-23.722 12.315-24.428 25.598-.223 4.192.507 8.187 1.99 11.795 1.086 2.643 3.68 4.356 6.537 4.356h114.334c3.232-.001 6.091-2.181 6.855-5.32z" fill="#90d8f9"/><path d="m465.055 128.026c.971-3.25 1.332-6.762.931-10.411-1.318-12.015-10.951-21.717-22.961-23.077-11.374-1.288-21.494 4.723-26.288 13.947-1.074 2.066-3.837 2.345-5.326.554-3.587-4.315-9.151-6.927-15.303-6.444-8.537.67-15.543 7.472-16.446 15.988-.382 3.6.304 7.01 1.773 9.962.527 1.058 1.633 1.703 2.815 1.703h77.772c1.389 0 2.636-.894 3.033-2.222z" fill="#90d8f9"/><path d="m504.501 512h-497c-4.143 0-7.5-3.357-7.5-7.5s3.357-7.5 7.5-7.5h497c4.143 0 7.5 3.357 7.5 7.5s-3.357 7.5-7.5 7.5z" fill="#9bd069"/></svg>