<svg height="427pt" viewBox="-63 0 427 427.6958" width="427pt" xmlns="http://www.w3.org/2000/svg"><path d="m293.886719 277.515625c0-79.175781-64.179688-143.355469-143.355469-143.355469s-143.359375 64.179688-143.359375 143.355469 64.183594 143.355469 143.359375 143.355469 143.355469-64.179688 143.355469-143.355469" fill="#9af43b"/><path d="m293.886719 277.515625h6.835937c-.011718-82.945313-67.25-150.183594-150.191406-150.191406-82.945312.007812-150.183594 67.246093-150.183594 150.191406s67.238282 150.179687 150.183594 150.179687c82.941406 0 150.179688-67.234374 150.1875-150.179687h-13.65625c0 37.722656-15.273438 71.8125-39.992188 96.539063-24.726562 24.714843-58.820312 39.992187-96.539062 39.992187-37.722656 0-71.816406-15.273437-96.542969-39.992187-24.714843-24.726563-39.992187-58.816407-39.992187-96.539063s15.273437-71.8125 39.992187-96.539063c24.730469-24.726562 58.820313-39.992187 96.542969-40 37.71875.007813 71.8125 15.273438 96.539062 40 24.714844 24.726563 39.992188 58.816407 39.992188 96.539063z" fill="#54596e"/><path d="m14.40625 288.160156c2.578125 33.46875 17.214844 63.515625 39.582031 85.894532 24.730469 24.714843 58.820313 39.992187 96.542969 39.992187 37.71875 0 71.8125-15.273437 96.539062-39.992187 22.367188-22.375 37-52.417969 39.582032-85.882813-18.796875 57.230469-72.597656 98.574219-136.121094 98.574219-63.519531 0-117.324219-41.351563-136.125-98.585938" fill="#90dd43"/><path d="m8.277344 260.449219c-.664063 5.601562-1.101563 11.28125-1.101563 17.066406 0 79.175781 64.179688 143.355469 143.355469 143.355469s143.355469-64.179688 143.355469-143.355469h-4.1875c-.878907 3.605469-1.898438 7.160156-3.046875 10.65625-2.578125 33.464844-17.214844 63.507813-39.582032 85.882813-24.726562 24.714843-58.816406 39.992187-96.539062 39.992187s-71.8125-15.273437-96.539062-39.992187c-22.371094-22.378907-37.007813-52.425782-39.582032-85.894532-2.921875-8.886718-4.996094-18.15625-6.132812-27.710937m284.507812 0c-.691406 5.804687-1.726562 11.496093-3.085937 17.066406h4.1875c0-5.785156-.4375-11.464844-1.101563-17.066406" fill="#54596e"/><path d="m283.484375 12.117188c-28.847656-10.960938-62.691406-4.886719-85.933594 18.351562-23.234375 23.238281-29.316406 57.078125-18.347656 85.933594 28.847656 10.960937 62.691406 4.886718 85.925781-18.351563 23.242188-23.242187 29.316406-57.082031 18.355469-85.933593zm0 0" fill="#61c5a8"/><path d="m283.484375 12.117188 2.425781-6.382813c-10.054687-3.820313-20.660156-5.734375-31.265625-5.734375-22.382812-.0117188-44.835937 8.535156-61.921875 25.644531-17.089844 17.082031-25.640625 39.523438-25.632812 61.90625 0 10.605469 1.910156 21.207031 5.730468 31.273438.695313 1.824219 2.136719 3.265625 3.960938 3.957031 10.050781 3.816406 20.65625 5.722656 31.257812 5.722656 22.382813.011719 44.832032-8.542968 61.917969-25.628906 17.09375-17.089844 25.644531-39.539062 25.636719-61.925781 0-10.609375-1.910156-21.214844-5.730469-31.261719-.691406-1.824219-2.128906-3.265625-3.953125-3.953125l-2.425781 6.382813-6.382813 2.421874c3.222657 8.472657 4.839844 17.441407 4.839844 26.410157-.007812 18.953125-7.1875 37.8125-21.640625 52.269531-14.453125 14.449219-33.316406 21.628906-52.261719 21.636719-8.964843 0-17.929687-1.609375-26.414062-4.835938l-2.421875 6.382813 6.382813-2.425782c-3.230469-8.5-4.84375-17.460937-4.84375-26.421874.007812-18.941407 7.1875-37.804688 21.636718-52.257813 14.453125-14.464844 33.320313-21.636719 52.265625-21.648437 8.964844 0 17.929688 1.621093 26.414063 4.847656l2.425781-6.378906-6.382813 2.421874zm0 0" fill="#54596e"/><path d="m158.9375 146.324219 91.714844-91.722657c1.496094-1.5 2.214844-3.613281 1.941406-5.710937l-5.445312-41.683594c-.492188-3.738281-3.917969-6.371093-7.65625-5.882812-3.738282.492187-6.375 3.917969-5.882813 7.65625l5.007813 38.34375-89.332032 89.34375c-2.667968 2.664062-2.671875 6.984375-.003906 9.65625 2.667969 2.664062 6.988281 2.664062 9.660156.003906zm0 0" fill="#54596e"/><path d="m271.015625 86.476562-58.464844-9.121093c-3.726562-.582031-7.21875 1.964843-7.796875 5.691406-.582031 3.726563 1.964844 7.21875 5.691406 7.796875l58.46875 9.121094c3.722657.578125 7.214844-1.964844 7.796876-5.695313.578124-3.71875-1.96875-7.214843-5.695313-7.792969" fill="#54596e"/><path d="m22.855469 12.117188c28.855469-10.960938 62.703125-4.886719 85.9375 18.351562 23.238281 23.238281 29.3125 57.078125 18.351562 85.933594-28.847656 10.960937-62.691406 4.886718-85.933593-18.351563-23.242188-23.242187-29.3125-57.082031-18.355469-85.933593zm0 0" fill="#61c5a8"/><path d="m22.855469 12.117188 2.425781 6.378906c8.488281-3.226563 17.457031-4.847656 26.417969-4.847656 18.945312.011718 37.808593 7.183593 52.261719 21.644531 14.453124 14.457031 21.632812 33.316406 21.640624 52.265625 0 8.960937-1.617187 17.921875-4.839843 26.417968l6.382812 2.425782-2.421875-6.382813c-8.484375 3.222657-17.449218 4.835938-26.414062 4.835938-18.945313-.011719-37.8125-7.191407-52.269532-21.636719-14.449218-14.457031-21.628906-33.320312-21.640624-52.269531 0-8.972657 1.617187-17.933594 4.839843-26.410157l-6.382812-2.421874 2.425781 6.378906-2.425781-6.378906-6.378907-2.433594c-3.820312 10.050781-5.730468 20.660156-5.730468 31.265625-.007813 22.386719 8.542968 44.835937 25.636718 61.925781 17.089844 17.085938 39.535157 25.640625 61.921876 25.628906 10.601562 0 21.207031-1.90625 31.261718-5.722656 1.824219-.691406 3.269532-2.136719 3.960938-3.960938 3.816406-10.054687 5.726562-20.65625 5.726562-31.261718.007813-22.386719-8.542968-44.832032-25.636718-61.917969-17.085938-17.105469-39.535157-25.6523438-61.921876-25.640625-10.605468 0-21.210937 1.914062-31.265624 5.734375-1.824219.6875-3.261719 2.125-3.957032 3.949219zm0 0" fill="#54596e"/><path d="m157.0625 136.664062-89.332031-89.34375 5.003906-38.34375c.488281-3.738281-2.148437-7.164062-5.886719-7.652343-3.738281-.488281-7.164062 2.148437-7.652344 5.886719l-5.441406 41.675781c-.273437 2.101562.441406 4.214843 1.941406 5.714843l91.714844 91.71875c2.664063 2.664063 6.988282 2.664063 9.652344 0 2.667969-2.664062 2.667969-6.988281 0-9.652343zm0 0" fill="#54596e"/><path d="m37.433594 99.964844 58.46875-9.121094c3.726562-.578125 6.273437-4.074219 5.695312-7.796875-.582031-3.726563-4.074218-6.273437-7.800781-5.691406l-58.464844 9.121093c-3.726562.578126-6.273437 4.074219-5.695312 7.792969.582031 3.730469 4.074219 6.273438 7.796875 5.695313" fill="#54596e"/><path d="m177.835938 147.808594c0 13.195312-10.695313 23.894531-23.890626 23.894531-13.195312 0-23.894531-10.699219-23.894531-23.894531 0-13.195313 10.699219-23.894532 23.894531-23.894532 13.195313 0 23.890626 10.699219 23.890626 23.894532zm0 0" fill="#fff35f"/><g fill="#54596e"><path d="m177.835938 147.808594h6.828124c-.003906-16.96875-13.75-30.714844-30.71875-30.71875-16.96875.003906-30.714843 13.75-30.722656 30.71875.007813 16.964844 13.753906 30.714844 30.722656 30.71875 16.96875-.003906 30.714844-13.753906 30.71875-30.71875h-13.652343c-.019531 9.417968-7.648438 17.046875-17.066407 17.066406-9.417968-.019531-17.050781-7.648438-17.066406-17.066406.015625-9.421875 7.648438-17.050782 17.066406-17.070313 9.417969.019531 17.046876 7.648438 17.066407 17.070313zm0 0"/><path d="m110.414062 296.230469c8.980469 9.757812 23.648438 15.359375 40.117188 15.414062 16.300781-.050781 30.839844-5.550781 39.847656-15.125 2.5625-2.761719 2.402344-7.082031-.359375-9.644531-2.761719-2.566406-7.082031-2.40625-9.644531.359375-5.433594 5.96875-16.710938 10.816406-29.84375 10.761719-13.269531.058594-24.636719-4.898438-30.007812-10.941406-2.535157-2.792969-6.851563-3-9.644532-.464844-2.789062 2.535156-2.996094 6.851562-.464844 9.644531zm0 0"/><path d="m102.746094 222.902344c0 7.539062-6.113282 13.652344-13.65625 13.652344-7.539063 0-13.652344-6.113282-13.652344-13.652344 0-7.539063 6.113281-13.652344 13.652344-13.652344 7.542968 0 13.65625 6.113281 13.65625 13.652344zm0 0"/><path d="m225.625 222.902344c0 7.539062-6.113281 13.652344-13.652344 13.652344-7.542968 0-13.65625-6.113282-13.65625-13.652344 0-7.539063 6.113282-13.652344 13.65625-13.652344 7.539063 0 13.652344 6.113281 13.652344 13.652344zm0 0"/></g><path d="m225.625 263.863281c0 7.539063-6.113281 13.652344-13.652344 13.652344-7.542968 0-13.65625-6.113281-13.65625-13.652344 0-7.542969 6.113282-13.652343 13.65625-13.652343 7.539063 0 13.652344 6.109374 13.652344 13.652343zm0 0" fill="#61c5a8"/><path d="m102.746094 263.863281c0 7.539063-6.113282 13.652344-13.65625 13.652344-7.539063 0-13.652344-6.113281-13.652344-13.652344 0-7.542969 6.113281-13.652343 13.652344-13.652343 7.542968 0 13.65625 6.109374 13.65625 13.652343zm0 0" fill="#61c5a8"/></svg>